{
    "asset" : {
        "generator" : "Khronos glTF Blender I/O v3.4.50",
        "version" : "2.0"
    },
    "extensionsUsed" : [
        "KHR_materials_specular",
        "KHR_materials_ior"
    ],
    "scene" : 0,
    "scenes" : [
        {
            "name" : "Scene",
            "nodes" : [
                0
            ]
        }
    ],
    "nodes" : [
        {
            "mesh" : 0,
            "name" : "Cube",
            "scale" : [
                0.050000011920928955,
                0.10000002384185791,
                0.02853759564459324
            ]
        }
    ],
    "materials" : [
        {
            "doubleSided" : true,
            "extensions" : {
                "KHR_materials_specular" : {
                    "specularColorFactor" : [
                        0.5522339785604282,
                        0.5522339785604282,
                        0.5522339785604282
                    ]
                },
                "KHR_materials_ior" : {
                    "ior" : 1.4500000476837158
                }
            },
            "name" : "PistoleBlack",
            "pbrMetallicRoughness" : {
                "baseColorFactor" : [
                    0.031128427013754845,
                    0.031128427013754845,
                    0.031128427013754845,
                    1
                ],
                "metallicFactor" : 0.36986300349235535,
                "roughnessFactor" : 0.5
            }
        },
        {
            "doubleSided" : true,
            "name" : "PistoleGray",
            "pbrMetallicRoughness" : {
                "baseColorFactor" : [
                    0.22485512495040894,
                    0.22485512495040894,
                    0.22485512495040894,
                    1
                ],
                "metallicFactor" : 0.3904109597206116,
                "roughnessFactor" : 0.681506872177124
            }
        }
    ],
    "meshes" : [
        {
            "name" : "Cube",
            "primitives" : [
                {
                    "attributes" : {
                        "POSITION" : 0,
                        "TEXCOORD_0" : 1,
                        "NORMAL" : 2
                    },
                    "indices" : 3,
                    "material" : 0
                },
                {
                    "attributes" : {
                        "POSITION" : 4,
                        "TEXCOORD_0" : 5,
                        "NORMAL" : 6
                    },
                    "indices" : 7,
                    "material" : 1
                }
            ]
        }
    ],
    "accessors" : [
        {
            "bufferView" : 0,
            "componentType" : 5126,
            "count" : 152,
            "max" : [
                4.999999046325684,
                1,
                1
            ],
            "min" : [
                -1.8986207246780396,
                -1,
                -1
            ],
            "type" : "VEC3"
        },
        {
            "bufferView" : 1,
            "componentType" : 5126,
            "count" : 152,
            "type" : "VEC2"
        },
        {
            "bufferView" : 2,
            "componentType" : 5126,
            "count" : 152,
            "type" : "VEC3"
        },
        {
            "bufferView" : 3,
            "componentType" : 5123,
            "count" : 222,
            "type" : "SCALAR"
        },
        {
            "bufferView" : 4,
            "componentType" : 5126,
            "count" : 296,
            "max" : [
                5.074985027313232,
                0.7788622379302979,
                0.6709936261177063
            ],
            "min" : [
                -1.92983078956604,
                0.3409085273742676,
                -0.677422285079956
            ],
            "type" : "VEC3"
        },
        {
            "bufferView" : 5,
            "componentType" : 5126,
            "count" : 296,
            "type" : "VEC2"
        },
        {
            "bufferView" : 6,
            "componentType" : 5126,
            "count" : 296,
            "type" : "VEC3"
        },
        {
            "bufferView" : 7,
            "componentType" : 5123,
            "count" : 504,
            "type" : "SCALAR"
        }
    ],
    "bufferViews" : [
        {
            "buffer" : 0,
            "byteLength" : 1824,
            "byteOffset" : 0,
            "target" : 34962
        },
        {
            "buffer" : 0,
            "byteLength" : 1216,
            "byteOffset" : 1824,
            "target" : 34962
        },
        {
            "buffer" : 0,
            "byteLength" : 1824,
            "byteOffset" : 3040,
            "target" : 34962
        },
        {
            "buffer" : 0,
            "byteLength" : 444,
            "byteOffset" : 4864,
            "target" : 34963
        },
        {
            "buffer" : 0,
            "byteLength" : 3552,
            "byteOffset" : 5308,
            "target" : 34962
        },
        {
            "buffer" : 0,
            "byteLength" : 2368,
            "byteOffset" : 8860,
            "target" : 34962
        },
        {
            "buffer" : 0,
            "byteLength" : 3552,
            "byteOffset" : 11228,
            "target" : 34962
        },
        {
            "buffer" : 0,
            "byteLength" : 1008,
            "byteOffset" : 14780,
            "target" : 34963
        }
    ],
    "buffers" : [
        {
            "byteLength" : 15788,
            "uri" : "Pistole-a926ee45403652e4dbdd64fea9bbf0e3.bin"
        }
    ]
}
